<svg width="200" height="200" viewBox="0 0 200 200" fill="none" xmlns="http://www.w3.org/2000/svg">
<g opacity="0.15">
<circle cx="100" cy="100" r="98.5" fill="white" stroke="#2659BC" stroke-width="3"/>
<path d="M108.804 160.688C106.82 160.688 105.828 159.737 105.828 157.836C105.828 157.34 105.869 155.149 105.952 151.264C106.035 147.296 106.117 142.295 106.2 136.26C106.365 130.143 106.489 123.447 106.572 116.172C106.655 108.815 106.696 101.457 106.696 94.1C106.696 87.0733 106.613 81.328 106.448 76.864C106.365 72.4 106.035 69.2173 105.456 67.316C105.291 66.9027 105.332 66.4893 105.58 66.076C105.993 65.828 106.448 65.7867 106.944 65.952C108.019 66.2827 109.383 66.7787 111.036 67.44C112.772 68.1013 114.508 68.804 116.244 69.548C118.063 70.292 119.551 70.9533 120.708 71.532H134.596C135.257 71.532 135.753 71.284 136.084 70.788C136.415 70.3747 136.869 69.7133 137.448 68.804C138.027 67.8947 138.481 67.192 138.812 66.696C139.308 65.952 140.052 65.7453 141.044 66.076C141.953 66.4067 143.193 66.9853 144.764 67.812C146.335 68.556 147.905 69.3827 149.476 70.292C151.047 71.1187 152.287 71.8213 153.196 72.4C153.857 72.7307 154.147 73.3093 154.064 74.136C153.981 74.88 153.609 75.4173 152.948 75.748C152.617 75.9133 152.245 76.12 151.832 76.368C151.501 76.5333 151.171 76.6987 150.84 76.864C149.6 77.6907 148.98 79.0133 148.98 80.832V95.092C148.98 102.036 149.021 108.773 149.104 115.304C149.269 121.752 149.393 127.621 149.476 132.912C149.641 138.12 149.765 142.377 149.848 145.684C150.013 148.908 150.096 150.768 150.096 151.264C150.096 152.091 149.517 152.793 148.36 153.372C147.203 154.033 145.797 154.529 144.144 154.86C142.491 155.191 140.879 155.356 139.308 155.356C137.324 155.356 136.332 154.447 136.332 152.628V148.536H119.468V156.72C119.468 157.464 118.889 158.125 117.732 158.704C116.657 159.365 115.293 159.861 113.64 160.192C111.987 160.523 110.375 160.688 108.804 160.688ZM44.572 161.928C43.332 161.515 42.96 160.771 43.456 159.696C49.2427 156.389 53.9547 152.421 57.592 147.792C61.2293 143.163 63.916 137.5 65.652 130.804C67.388 124.108 68.3387 116.048 68.504 106.624H57.22C57.22 106.624 56.6 106.624 55.36 106.624C54.2027 106.624 52.7147 106.707 50.896 106.872C49.16 106.955 47.3413 107.12 45.44 107.368L43.952 101.912C47.5893 102.408 50.6893 102.697 53.252 102.78C55.8147 102.863 57.096 102.904 57.096 102.904H68.504V77.36H64.66C61.8493 81.9067 58.8733 86.1227 55.732 90.008C52.5907 93.8933 49.408 97.4067 46.184 100.548C44.8613 100.713 44.2 100.176 44.2 98.936C46.5147 95.5467 48.6227 91.62 50.524 87.156C52.4253 82.6093 54.0373 78.0213 55.36 73.392C56.7653 68.68 57.7987 64.34 58.46 60.372C59.204 56.3213 59.576 53.1387 59.576 50.824C59.576 49.7493 60.0307 49.2947 60.94 49.46C61.932 49.5427 63.544 49.8733 65.776 50.452C68.0907 51.0307 70.364 51.6507 72.596 52.312C74.9107 52.8907 76.564 53.3453 77.556 53.676C78.3827 53.924 78.7133 54.5027 78.548 55.412C78.3827 56.3213 77.928 56.776 77.184 56.776C76.1093 56.8587 75.324 57.1067 74.828 57.52C74.4147 57.9333 74.0013 58.636 73.588 59.628C72.596 62.0253 71.5213 64.4227 70.364 66.82C69.2893 69.1347 68.132 71.3667 66.892 73.516H83.012C84.1693 73.516 84.9547 73.1853 85.368 72.524C85.864 71.8627 86.5667 70.8707 87.476 69.548C88.3853 68.1427 89.0467 67.1507 89.46 66.572C90.204 65.4973 91.1547 65.3733 92.312 66.2C93.7173 67.0267 95.3293 68.308 97.148 70.044C98.9667 71.6973 100.331 73.0613 101.24 74.136C101.901 74.7973 102.067 75.5 101.736 76.244C101.488 76.988 101.033 77.36 100.372 77.36H81.772V102.904H84.872C85.864 102.904 86.6493 102.573 87.228 101.912C87.6413 101.168 88.344 100.052 89.336 98.564C90.4107 96.9933 91.1547 95.9187 91.568 95.34C92.312 94.2653 93.2627 94.1413 94.42 94.968C95.3293 95.5467 96.404 96.4147 97.644 97.572C98.9667 98.6467 100.207 99.7213 101.364 100.796C102.521 101.871 103.389 102.78 103.968 103.524C104.629 104.185 104.836 104.888 104.588 105.632C104.34 106.293 103.844 106.624 103.1 106.624H81.772C81.524 114.477 80.4907 121.38 78.672 127.332C82.5573 128.241 86.1533 129.605 89.46 131.424C92.7667 133.16 95.4947 135.309 97.644 137.872C99.7933 140.435 101.033 143.328 101.364 146.552C101.695 148.949 101.323 150.975 100.248 152.628C99.256 154.281 97.9333 155.397 96.28 155.976C94.7093 156.555 93.18 156.555 91.692 155.976C90.2867 155.48 89.3773 154.24 88.964 152.256C87.8893 147.709 86.4427 143.617 84.624 139.98C82.8053 136.343 80.4493 133.16 77.556 130.432C74.7453 138.12 70.5293 144.485 64.908 149.528C59.3693 154.571 52.5907 158.704 44.572 161.928ZM119.468 144.816H136.332V75.376H119.468V144.816Z" fill="#2659BC"/>
</g>
</svg>
