<svg width="200" height="200" viewBox="0 0 200 200" fill="none" xmlns="http://www.w3.org/2000/svg">
<g opacity="0.15">
<circle cx="100" cy="100" r="98.5" fill="white" stroke="#832CC7" stroke-width="3"/>
<path d="M94.296 161.68C93.552 157.877 92.684 154.984 91.692 153C90.7827 151.016 89.336 149.569 87.352 148.66C85.4507 147.751 82.5987 147.048 78.796 146.552C78.052 145.643 78.1347 144.816 79.044 144.072C79.8707 144.072 81.276 144.113 83.26 144.196C85.3267 144.196 87.476 144.196 89.708 144.196C91.94 144.196 93.7173 144.196 95.04 144.196C97.768 144.196 99.0493 143.204 98.884 141.22C98.884 140.559 98.8427 138.409 98.76 134.772C98.6773 131.135 98.5533 126.671 98.388 121.38C89.8733 126.919 81.0693 131.631 71.976 135.516C62.8827 139.319 53.996 142.377 45.316 144.692C44.1587 144.113 43.9107 143.328 44.572 142.336C49.78 140.187 55.4427 137.5 61.56 134.276C67.6773 131.052 73.836 127.373 80.036 123.24C86.3187 119.024 92.2707 114.477 97.892 109.6L96.9 79.096C93.0973 79.096 89.3773 79.096 85.74 79.096C82.1853 79.096 78.8373 79.096 75.696 79.096C70.6533 79.096 66.4373 79.096 63.048 79.096C59.6587 79.096 57.6747 79.096 57.096 79.096C57.096 79.096 55.856 79.1373 53.376 79.22C50.896 79.22 48.2093 79.3853 45.316 79.716L43.952 74.26C47.5067 74.756 50.5653 75.0453 53.128 75.128C55.7733 75.2107 57.096 75.252 57.096 75.252H96.776L96.28 61.612C96.1973 58.9667 95.9907 56.9 95.66 55.412C95.412 53.924 95.1227 52.8907 94.792 52.312C94.3787 51.816 94.3373 51.32 94.668 50.824C94.916 50.4107 95.3293 50.204 95.908 50.204C97.0653 50.204 98.7187 50.328 100.868 50.576C103.017 50.824 105.167 51.1133 107.316 51.444C109.548 51.692 111.201 51.94 112.276 52.188C113.351 52.436 113.805 53.0973 113.64 54.172C113.64 55.2467 113.061 55.8667 111.904 56.032C110.995 56.1147 110.251 56.3627 109.672 56.776C109.176 57.1893 108.928 57.8507 108.928 58.76C108.928 59.4213 108.969 61.364 109.052 64.588C109.217 67.7293 109.341 71.284 109.424 75.252H133.108C134.265 75.252 135.133 74.9213 135.712 74.26C136.043 73.764 136.58 73.0613 137.324 72.152C138.068 71.2427 138.771 70.3333 139.432 69.424C140.176 68.5147 140.713 67.8533 141.044 67.44C141.788 66.448 142.739 66.2827 143.896 66.944C144.888 67.3573 146.128 68.184 147.616 69.424C149.187 70.5813 150.675 71.78 152.08 73.02C153.568 74.1773 154.643 75.128 155.304 75.872C155.883 76.5333 156.048 77.236 155.8 77.98C155.635 78.724 155.221 79.096 154.56 79.096H109.548L110.044 97.324C112.193 94.844 114.219 92.24 116.12 89.512C118.104 86.7013 119.261 84.552 119.592 83.064C119.757 82.4027 119.964 81.9893 120.212 81.824C120.543 81.576 120.956 81.576 121.452 81.824C122.527 82.32 123.973 83.1467 125.792 84.304C127.611 85.4613 129.388 86.66 131.124 87.9C132.943 89.0573 134.307 90.008 135.216 90.752C135.96 91.248 136.043 91.9507 135.464 92.86C135.051 93.7693 134.431 94.0173 133.604 93.604C132.281 93.1907 131.331 93.0667 130.752 93.232C130.173 93.3973 129.512 93.976 128.768 94.968C126.04 98.192 123.147 101.292 120.088 104.268C117.112 107.161 113.971 109.931 110.664 112.576C110.912 119.355 111.201 125.472 111.532 130.928C111.945 136.384 112.193 140.6 112.276 143.576C112.441 146.304 111.987 148.867 110.912 151.264C109.92 153.661 108.101 155.728 105.456 157.464C102.811 159.283 99.0907 160.688 94.296 161.68Z" fill="#832CC7"/>
</g>
</svg>
