<svg width="200" height="200" viewBox="0 0 200 200" fill="none" xmlns="http://www.w3.org/2000/svg">
<g opacity="0.15">
<circle cx="100" cy="100" r="98.5" fill="white" stroke="#36A51A" stroke-width="3"/>
<path d="M83.012 117.908C81.1933 117.908 80.284 117.081 80.284 115.428C80.284 115.097 80.3253 113.816 80.408 111.584C80.5733 109.269 80.6973 106.376 80.78 102.904C80.9453 99.3493 81.028 95.588 81.028 91.62C81.028 87.9 80.9453 85.048 80.78 83.064C80.6973 80.9973 80.4493 79.5093 80.036 78.6C79.9533 78.2693 80.036 77.8973 80.284 77.484C80.532 77.236 80.8627 77.1947 81.276 77.36C82.1027 77.608 83.3013 78.0627 84.872 78.724C86.5253 79.3027 88.1787 79.9227 89.832 80.584C91.568 81.2453 92.8907 81.824 93.8 82.32H107.44V68.804C105.539 68.804 103.72 68.804 101.984 68.804C100.248 68.804 98.636 68.804 97.148 68.804C94.916 68.804 93.0147 68.804 91.444 68.804C89.956 68.804 89.0467 68.804 88.716 68.804C88.716 68.804 87.476 68.8453 84.996 68.928C82.516 68.928 79.8293 69.0933 76.936 69.424L75.572 64.092C79.1267 64.588 82.1853 64.8773 84.748 64.96C87.3933 65.0427 88.716 65.084 88.716 65.084H107.44V59.504C107.44 57.4373 107.316 55.784 107.068 54.544C106.903 53.304 106.696 52.3947 106.448 51.816C106.117 51.1547 106.076 50.6587 106.324 50.328C106.655 49.9147 107.068 49.7493 107.564 49.832C108.639 49.832 110.168 49.956 112.152 50.204C114.219 50.452 116.244 50.7413 118.228 51.072C120.295 51.4027 121.824 51.692 122.816 51.94C123.808 52.188 124.221 52.8493 124.056 53.924C124.056 54.916 123.477 55.4947 122.32 55.66C120.501 55.8253 119.592 56.6933 119.592 58.264V65.084H135.464C136.621 65.084 137.448 64.712 137.944 63.968C138.275 63.5547 138.729 62.9347 139.308 62.108C139.969 61.1987 140.631 60.2893 141.292 59.38C141.953 58.4707 142.408 57.8507 142.656 57.52C143.4 56.528 144.351 56.3627 145.508 57.024C146.417 57.52 147.533 58.3467 148.856 59.504C150.261 60.5787 151.584 61.6947 152.824 62.852C154.147 64.0093 155.097 64.9187 155.676 65.58C156.337 66.324 156.544 67.068 156.296 67.812C156.048 68.4733 155.593 68.804 154.932 68.804H119.592V82.32H133.604C134.431 82.32 135.009 82.0307 135.34 81.452C135.671 81.0387 136.084 80.46 136.58 79.716C137.159 78.8893 137.613 78.2693 137.944 77.856C138.44 77.0293 139.225 76.8227 140.3 77.236C141.623 77.8147 143.4 78.6827 145.632 79.84C147.864 80.9973 149.6 81.948 150.84 82.692C151.584 83.188 151.915 83.8493 151.832 84.676C151.832 85.5027 151.377 86.1227 150.468 86.536C150.137 86.6187 149.807 86.7427 149.476 86.908C149.228 87.0733 148.98 87.2387 148.732 87.404C147.823 87.9827 147.368 89.14 147.368 90.876C147.368 92.86 147.409 95.092 147.492 97.572C147.575 99.9693 147.616 102.325 147.616 104.64C147.699 106.872 147.781 108.773 147.864 110.344C147.947 111.915 147.988 112.824 147.988 113.072C147.988 114.147 146.955 115.056 144.888 115.8C142.821 116.461 140.672 116.792 138.44 116.792C136.539 116.792 135.588 115.965 135.588 114.312V112.08H92.436V114.312C92.436 115.387 91.4027 116.255 89.336 116.916C87.352 117.577 85.244 117.908 83.012 117.908ZM57.964 162.052C55.98 162.052 54.988 161.184 54.988 159.448C54.988 159.117 55.0293 157.919 55.112 155.852C55.1947 153.785 55.2773 151.099 55.36 147.792C55.5253 144.485 55.6493 140.889 55.732 137.004C55.8973 133.036 56.0213 129.068 56.104 125.1C56.1867 121.049 56.228 117.288 56.228 113.816V109.104C51.9293 113.981 47.548 118.239 43.084 121.876C41.7613 121.876 41.1827 121.297 41.348 120.14C43.9107 116.999 46.3907 113.444 48.788 109.476C51.1853 105.508 53.376 101.457 55.36 97.324C57.344 93.1907 58.9973 89.264 60.32 85.544C61.6427 81.824 62.5107 78.6413 62.924 75.996C62.924 75.6653 63.0893 75.3347 63.42 75.004C63.7507 74.9213 64.2053 74.9213 64.784 75.004C65.28 75.1693 66.148 75.5413 67.388 76.12C68.7107 76.6987 70.116 77.3187 71.604 77.98C73.1747 78.6413 74.58 79.2613 75.82 79.84C77.1427 80.336 78.0107 80.708 78.424 80.956C78.8373 81.1213 79.0853 81.4107 79.168 81.824C79.2507 82.2373 79.2093 82.6507 79.044 83.064C78.7133 83.808 78.2173 84.1387 77.556 84.056C76.7293 83.8907 76.0267 83.8907 75.448 84.056C74.952 84.2213 74.3733 84.7587 73.712 85.668C71.728 88.892 69.6613 92.0333 67.512 95.092V113.816C67.512 114.477 67.512 116.007 67.512 118.404C67.512 120.801 67.512 123.695 67.512 127.084C67.512 130.391 67.512 133.821 67.512 137.376C67.5947 140.931 67.636 144.279 67.636 147.42C67.636 150.479 67.636 153 67.636 154.984C67.636 156.968 67.636 158.001 67.636 158.084C67.636 159.159 66.6027 160.068 64.536 160.812C62.4693 161.639 60.2787 162.052 57.964 162.052ZM100.992 160.192C96.28 159.861 93.924 157.877 93.924 154.24V130.432C93.924 126.299 93.5933 123.653 92.932 122.496C92.7667 121.917 92.7667 121.504 92.932 121.256C93.2627 120.925 93.6347 120.801 94.048 120.884C95.04 120.884 96.4867 121.008 98.388 121.256C100.289 121.504 102.191 121.793 104.092 122.124C105.993 122.372 107.399 122.62 108.308 122.868C109.217 123.116 109.589 123.695 109.424 124.604C109.341 125.431 108.845 125.927 107.936 126.092C107.109 126.175 106.448 126.381 105.952 126.712C105.456 126.96 105.208 127.497 105.208 128.324V146.304C105.208 147.957 106.324 148.825 108.556 148.908C109.879 148.991 111.532 149.032 113.516 149.032C115.5 148.949 117.401 148.867 119.22 148.784C121.121 148.619 122.527 148.453 123.436 148.288C124.841 147.957 125.751 147.544 126.164 147.048C126.66 146.552 127.115 145.767 127.528 144.692C127.941 143.617 128.396 142.171 128.892 140.352C129.388 138.451 129.843 136.632 130.256 134.896C130.669 133.077 130.959 131.879 131.124 131.3C132.116 130.556 132.984 130.68 133.728 131.672C133.728 132.251 133.687 133.408 133.604 135.144C133.521 136.88 133.439 138.616 133.356 140.352C133.356 142.088 133.315 143.328 133.232 144.072C133.232 145.395 133.935 146.345 135.34 146.924C136.663 147.42 137.613 148.205 138.192 149.28C138.771 150.355 139.06 151.512 139.06 152.752C139.06 155.893 136.621 157.96 131.744 158.952C129.925 159.365 127.611 159.655 124.8 159.82C121.989 160.068 119.013 160.233 115.872 160.316C112.813 160.399 109.961 160.399 107.316 160.316C104.671 160.316 102.563 160.275 100.992 160.192ZM44.2 84.924C43.6213 84.8413 43.208 84.5933 42.96 84.18C42.712 83.7667 42.6293 83.312 42.712 82.816C44.944 80.5013 47.1347 77.856 49.284 74.88C51.4333 71.904 53.3347 68.928 54.988 65.952C56.724 62.8933 58.1293 60.0827 59.204 57.52C60.3613 54.8747 61.064 52.7667 61.312 51.196C61.312 50.7 61.4773 50.3693 61.808 50.204C62.056 50.0387 62.5107 50.0387 63.172 50.204C64.3293 50.6173 65.8587 51.2787 67.76 52.188C69.744 53.0147 71.6867 53.8827 73.588 54.792C75.4893 55.6187 76.8947 56.3213 77.804 56.9C78.548 57.3133 78.7547 57.9333 78.424 58.76C78.0933 59.752 77.556 60.1653 76.812 60C75.9027 59.8347 75.1173 59.876 74.456 60.124C73.8773 60.2893 73.2573 60.744 72.596 61.488C68.2973 65.952 63.5853 70.3333 58.46 74.632C53.4173 78.848 48.664 82.2787 44.2 84.924ZM151.46 152.752C150.055 153.165 148.691 153.083 147.368 152.504C146.128 151.925 145.301 150.644 144.888 148.66C144.061 144.609 142.532 140.435 140.3 136.136C138.151 131.837 135.547 128.407 132.488 125.844C132.323 124.604 132.819 123.901 133.976 123.736C137.861 125.059 141.457 126.753 144.764 128.82C148.071 130.804 150.757 133.077 152.824 135.64C154.973 138.203 156.172 141.013 156.42 144.072C156.668 146.387 156.255 148.329 155.18 149.9C154.105 151.388 152.865 152.339 151.46 152.752ZM76.192 155.604C73.7947 155.687 72.1 154.901 71.108 153.248C70.116 151.677 69.868 149.9 70.364 147.916C70.86 145.932 72.0587 144.444 73.96 143.452C77.3493 141.551 79.8293 139.236 81.4 136.508C83.0533 133.697 83.8387 130.019 83.756 125.472C84.5827 124.48 85.4507 124.356 86.36 125.1C87.2693 128.489 87.8067 131.961 87.972 135.516C88.22 138.988 88.0133 142.253 87.352 145.312C86.7733 148.288 85.5747 150.727 83.756 152.628C81.9373 154.447 79.416 155.439 76.192 155.604ZM121.08 135.144C119.675 135.475 118.476 135.392 117.484 134.896C116.492 134.4 115.789 133.325 115.376 131.672C114.549 128.2 113.351 125.183 111.78 122.62C110.209 120.057 108.101 118.115 105.456 116.792C104.877 115.635 105.167 114.849 106.324 114.436C109.3 114.684 112.193 115.304 115.004 116.296C117.897 117.205 120.336 118.528 122.32 120.264C124.387 121.917 125.668 123.984 126.164 126.464C126.577 128.779 126.247 130.721 125.172 132.292C124.097 133.78 122.733 134.731 121.08 135.144ZM128.148 108.236H135.588V86.04H128.148V108.236ZM92.436 108.236H99.752V86.04H92.436V108.236ZM110.292 108.236H117.608V86.04H110.292V108.236Z" fill="#36A51A"/>
</g>
</svg>
