<svg width="200" height="200" viewBox="0 0 200 200" fill="none" xmlns="http://www.w3.org/2000/svg">
<g opacity="0.15">
<circle cx="100" cy="100" r="98.5" fill="white" stroke="#D52323" stroke-width="3"/>
<path d="M106.944 162.424C104.877 162.424 103.844 161.515 103.844 159.696C103.844 159.283 103.885 157.919 103.968 155.604C104.051 153.289 104.133 150.52 104.216 147.296C104.381 143.989 104.505 140.848 104.588 137.872H97.768C97.768 137.872 96.528 137.913 94.048 137.996C91.568 137.996 88.8813 138.161 85.988 138.492L84.624 133.16C88.2613 133.656 91.3613 133.945 93.924 134.028C96.4867 134.111 97.768 134.152 97.768 134.152H104.588V102.532C99.9587 110.633 94.792 118.073 89.088 124.852C83.384 131.548 77.5973 137.128 71.728 141.592C71.48 141.592 71.1907 141.509 70.86 141.344L70.984 157.96C70.984 159.117 69.9093 160.068 67.76 160.812C65.6107 161.639 63.3373 162.052 60.94 162.052C58.956 162.052 57.964 161.143 57.964 159.324C57.964 158.993 58.0053 157.671 58.088 155.356C58.1707 153.041 58.2533 150.065 58.336 146.428C58.5013 142.708 58.6253 138.699 58.708 134.4C58.7907 130.019 58.8733 125.637 58.956 121.256C59.0387 116.875 59.08 112.865 59.08 109.228V96.58C54.12 103.524 48.8293 109.6 43.208 114.808C41.968 114.808 41.348 114.229 41.348 113.072C43.9933 109.352 46.4733 105.177 48.788 100.548C51.1853 95.9187 53.3347 91.1653 55.236 86.288C57.1373 81.328 58.7907 76.5747 60.196 72.028C61.6013 67.3987 62.7173 63.2653 63.544 59.628C64.3707 55.908 64.8253 52.9733 64.908 50.824C64.908 50.2453 65.032 49.9147 65.28 49.832C65.528 49.584 65.9 49.5427 66.396 49.708C67.8013 50.0387 69.5373 50.5347 71.604 51.196C73.7533 51.8573 75.8613 52.56 77.928 53.304C80.0773 54.048 81.8133 54.668 83.136 55.164C83.9627 55.5773 84.2107 56.28 83.88 57.272C83.632 58.1813 83.0947 58.636 82.268 58.636C81.1933 58.5533 80.3667 58.6773 79.788 59.008C79.2093 59.256 78.7133 59.9173 78.3 60.992C77.2253 63.8027 76.068 66.6133 74.828 69.424C73.588 72.152 72.2653 74.8387 70.86 77.484V138.74C74.332 134.524 77.804 129.44 81.276 123.488C84.8307 117.536 88.1373 111.005 91.196 103.896C94.3373 96.7867 96.9827 89.4293 99.132 81.824H88.592C88.592 81.824 87.352 81.8653 84.872 81.948C82.392 81.948 79.7053 82.1133 76.812 82.444L75.448 76.988C79.0027 77.5667 82.0613 77.8973 84.624 77.98C87.2693 78.0627 88.592 78.104 88.592 78.104H104.588V60.124C104.588 56.156 104.257 53.5933 103.596 52.436C103.348 51.7747 103.348 51.2787 103.596 50.948C103.761 50.5347 104.175 50.328 104.836 50.328C105.911 50.328 107.399 50.4933 109.3 50.824C111.201 51.072 113.103 51.3613 115.004 51.692C116.988 52.0227 118.476 52.312 119.468 52.56C120.543 52.808 120.997 53.4693 120.832 54.544C120.749 55.1227 120.543 55.536 120.212 55.784C119.881 56.032 119.509 56.1973 119.096 56.28C117.277 56.3627 116.368 57.2307 116.368 58.884V78.104H133.852C135.009 78.104 135.836 77.732 136.332 76.988C136.663 76.5747 137.159 75.9133 137.82 75.004C138.481 74.0947 139.143 73.1853 139.804 72.276C140.548 71.3667 141.044 70.7053 141.292 70.292C142.036 69.3 142.987 69.176 144.144 69.92C145.053 70.416 146.211 71.2427 147.616 72.4C149.104 73.5573 150.509 74.7147 151.832 75.872C153.155 77.0293 154.064 77.9387 154.56 78.6C155.221 79.2613 155.428 79.964 155.18 80.708C154.932 81.452 154.477 81.824 153.816 81.824H117.98C119.551 86.536 121.824 91.1653 124.8 95.712C127.859 100.176 131.289 104.351 135.092 108.236C138.977 112.121 142.987 115.593 147.12 118.652C151.336 121.628 155.345 124.067 159.148 125.968C156.089 127.291 153.279 129.151 150.716 131.548C148.236 133.945 146.5 136.177 145.508 138.244C140.796 134.111 136.456 129.192 132.488 123.488C128.603 117.784 125.255 111.667 122.444 105.136C119.716 98.6053 117.691 91.992 116.368 85.296V134.152H120.212C121.287 134.152 122.031 133.821 122.444 133.16C122.857 132.499 123.519 131.507 124.428 130.184C125.42 128.779 126.081 127.787 126.412 127.208C127.156 126.299 128.024 126.216 129.016 126.96C129.843 127.456 130.835 128.241 131.992 129.316C133.149 130.308 134.265 131.341 135.34 132.416C136.497 133.408 137.324 134.235 137.82 134.896C138.399 135.557 138.564 136.219 138.316 136.88C138.151 137.541 137.737 137.872 137.076 137.872H116.368C116.451 140.683 116.533 143.617 116.616 146.676C116.781 149.652 116.905 152.215 116.988 154.364C117.071 156.513 117.112 157.795 117.112 158.208C117.112 159.365 116.037 160.357 113.888 161.184C111.739 162.011 109.424 162.424 106.944 162.424Z" fill="#D42323"/>
</g>
</svg>
