<svg width="200" height="200" viewBox="0 0 200 200" fill="none" xmlns="http://www.w3.org/2000/svg">
<g opacity="0.15">
<circle cx="100" cy="100" r="98.5" fill="white" stroke="#E88F3D" stroke-width="3"/>
<path d="M54.368 162.92C53.4587 163.251 52.7973 163.044 52.384 162.3C51.8053 161.308 50.9787 159.737 49.904 157.588C48.912 155.439 47.92 153.331 46.928 151.264C46.0187 149.115 45.316 147.544 44.82 146.552C44.572 145.891 44.572 145.436 44.82 145.188C45.068 144.857 45.564 144.692 46.308 144.692C46.8867 144.692 47.548 144.692 48.292 144.692C49.1187 144.692 49.9453 144.651 50.772 144.568C52.9213 144.485 55.4427 144.361 58.336 144.196C61.312 144.031 64.4533 143.824 67.76 143.576V99.308C67.76 97.324 67.7187 95.5467 67.636 93.976C67.5533 92.3227 67.4293 90.876 67.264 89.636C63.2133 92.0333 59.08 94.1827 54.864 96.084C50.7307 97.9027 46.556 99.5147 42.34 100.92C41.348 100.424 41.0587 99.6387 41.472 98.564C47.8373 95.34 53.6653 91.5373 58.956 87.156C64.3293 82.692 69.0413 78.104 73.092 73.392C77.2253 68.68 80.532 64.216 83.012 60C85.5747 55.7013 87.1453 52.1053 87.724 49.212C87.8067 48.964 87.848 48.7573 87.848 48.592C87.9307 48.344 88.0133 48.1373 88.096 47.972C88.344 47.5587 88.8813 47.4347 89.708 47.6C90.7 47.7653 92.312 48.1787 94.544 48.84C96.776 49.4187 99.0493 50.08 101.364 50.824C103.679 51.4853 105.415 52.0227 106.572 52.436C106.985 52.6013 107.275 52.932 107.44 53.428C107.605 53.8413 107.605 54.2547 107.44 54.668C107.109 55.4947 106.489 55.908 105.58 55.908H105.332C108.143 59.7107 111.615 63.0173 115.748 65.828C119.964 68.6387 124.511 70.9533 129.388 72.772C134.348 74.5907 139.391 76.0373 144.516 77.112C149.641 78.104 154.519 78.724 159.148 78.972C157.412 79.964 155.759 81.3693 154.188 83.188C152.617 85.0067 151.295 86.908 150.22 88.892C149.145 90.7933 148.36 92.488 147.864 93.976C145.797 93.3147 143.565 92.5293 141.168 91.62C138.853 90.628 136.497 89.4707 134.1 88.148C134.431 88.644 134.513 89.1813 134.348 89.76C134.183 90.3387 133.811 90.7933 133.232 91.124C132.736 91.2893 131.992 91.62 131 92.116C130.587 92.364 130.256 92.736 130.008 93.232C129.843 93.6453 129.76 94.3893 129.76 95.464C129.76 97.448 129.801 99.8453 129.884 102.656C129.967 105.384 130.049 108.153 130.132 110.964C130.297 113.692 130.421 116.089 130.504 118.156C131.744 118.735 133.273 119.479 135.092 120.388C136.911 121.297 138.688 122.207 140.424 123.116C142.243 123.943 143.689 124.687 144.764 125.348C145.508 125.761 145.756 126.381 145.508 127.208C145.26 128.2 144.681 128.613 143.772 128.448C142.615 128.283 141.664 128.324 140.92 128.572C140.259 128.737 139.432 129.151 138.44 129.812C135.629 131.631 132.488 133.449 129.016 135.268C125.627 137.087 122.361 138.699 119.22 140.104C125.255 142.749 131.744 144.403 138.688 145.064C145.632 145.725 152.163 145.973 158.28 145.808C155.469 147.627 152.948 150.065 150.716 153.124C148.567 156.265 147.203 159.076 146.624 161.556C139.432 160.316 132.405 158.249 125.544 155.356C118.683 152.463 112.813 148.329 107.936 142.956C105.621 143.7 102.687 144.609 99.132 145.684C95.66 146.759 91.94 147.916 87.972 149.156C84.004 150.313 80.0773 151.471 76.192 152.628C72.3067 153.785 68.7933 154.819 65.652 155.728C62.5107 156.72 60.0307 157.505 58.212 158.084C57.1373 158.415 56.352 158.745 55.856 159.076C55.4427 159.407 55.2773 160.068 55.36 161.06C55.608 161.969 55.2773 162.589 54.368 162.92ZM81.648 87.156H92.932V80.088C92.932 78.6 92.808 77.2773 92.56 76.12C92.3947 74.9627 92.2293 74.1773 92.064 73.764C91.816 73.268 91.816 72.8133 92.064 72.4C92.2293 71.8213 92.684 71.6147 93.428 71.78C94.668 71.8627 96.2387 72.0693 98.14 72.4C100.041 72.7307 101.943 73.1027 103.844 73.516C105.828 73.8467 107.44 74.2187 108.68 74.632C109.589 74.88 109.961 75.5 109.796 76.492C109.796 77.4013 109.3 77.98 108.308 78.228C107.316 78.476 106.613 78.848 106.2 79.344C105.869 79.7573 105.704 80.5013 105.704 81.576V87.156H114.88C116.037 87.156 116.823 86.8253 117.236 86.164C117.649 85.7507 118.104 85.172 118.6 84.428C119.179 83.6013 119.675 82.8987 120.088 82.32C120.667 81.4933 121.452 81.2867 122.444 81.7C122.775 81.7827 123.147 81.948 123.56 82.196C124.056 82.3613 124.593 82.568 125.172 82.816C120.543 79.592 116.161 75.7893 112.028 71.408C107.977 67.0267 104.753 62.0667 102.356 56.528C101.943 56.8587 101.447 57.4373 100.868 58.264C97.3133 63.5547 93.3867 68.3493 89.088 72.648C84.7893 76.864 80.3253 80.6667 75.696 84.056C76.7707 84.6347 77.804 85.172 78.796 85.668C79.8707 86.164 80.8213 86.66 81.648 87.156ZM80.16 118.156H117.36V106.004H80.16V118.156ZM80.16 102.284H117.36V90.876H80.16V102.284ZM80.16 142.584C85.2853 142.171 90.1627 141.799 94.792 141.468C99.504 141.055 103.183 140.724 105.828 140.476C103.844 137.913 102.108 135.103 100.62 132.044C99.132 128.985 97.9747 125.596 97.148 121.876H80.16V142.584ZM115.624 138.368C117.029 136.88 118.435 135.144 119.84 133.16C121.328 131.093 122.651 129.109 123.808 127.208C123.312 127.291 122.816 127.332 122.32 127.332C121.824 127.332 121.287 127.332 120.708 127.332C118.476 127.332 117.36 126.423 117.36 124.604V121.876H100.496C102.149 125.679 104.257 128.903 106.82 131.548C109.383 134.193 112.317 136.467 115.624 138.368Z" fill="#E88F3D"/>
</g>
</svg>
