<svg width="26" height="22" viewBox="0 0 26 22" fill="none" xmlns="http://www.w3.org/2000/svg">
<path d="M25 1.22338C25 1.22338 22.7987 2.52386 21.5745 2.89247C20.9175 2.13702 20.0443 1.60158 19.0731 1.35856C18.1019 1.11555 17.0795 1.17667 16.1441 1.53368C15.2088 1.8907 14.4055 2.52636 13.8433 3.3547C13.2809 4.18304 12.9866 5.1641 13 6.16519V7.2561C11.0828 7.30581 9.1832 6.88062 7.47019 6.0184C5.75717 5.15618 4.28399 3.8837 3.18182 2.31428C3.18182 2.31428 -1.18182 12.1325 8.63636 16.4961C6.38967 18.0211 3.71327 18.7859 1 18.678C10.8182 24.1325 22.8182 18.678 22.8182 6.13247C22.8172 5.82859 22.788 5.52547 22.7309 5.22701C23.8443 4.129 25 1.22338 25 1.22338Z" stroke="#333333" stroke-width="1.92" stroke-linecap="round" stroke-linejoin="round"/>
</svg>
