<svg width="173" height="169" viewBox="0 0 173 169" fill="none" xmlns="http://www.w3.org/2000/svg">
<path d="M69.4906 77.4993C69.4906 96.2745 54.2704 111.495 35.4953 111.495C16.7202 111.495 1.5 96.2745 1.5 77.4993C1.5 58.7242 16.7202 43.5039 35.4953 43.5039C54.2704 43.5039 69.4906 58.7242 69.4906 77.4993Z" fill="white" stroke="#D42323" stroke-width="3"/>
<path d="M37.2873 92.8251C36.754 92.8251 36.4873 92.5904 36.4873 92.1211C36.4873 92.0144 36.498 91.6624 36.5193 91.0651C36.5407 90.4678 36.562 89.7531 36.5833 88.9211C36.626 88.0678 36.658 87.2571 36.6793 86.4891H34.9193C34.9193 86.4891 34.5993 86.4998 33.9593 86.5211C33.3193 86.5211 32.626 86.5638 31.8793 86.6491L31.5273 85.2731C32.466 85.4011 33.266 85.4758 33.9273 85.4971C34.5887 85.5184 34.9193 85.5291 34.9193 85.5291H36.6793V77.3691C35.4847 79.4598 34.1513 81.3798 32.6793 83.1291C31.2073 84.8571 29.714 86.2971 28.1993 87.4491C28.1353 87.4491 28.0607 87.4278 27.9753 87.3851L28.0073 91.6731C28.0073 91.9718 27.73 92.2171 27.1753 92.4091C26.6207 92.6224 26.034 92.7291 25.4153 92.7291C24.9033 92.7291 24.6473 92.4944 24.6473 92.0251C24.6473 91.9398 24.658 91.5984 24.6793 91.0011C24.7007 90.4038 24.722 89.6358 24.7433 88.6971C24.786 87.7371 24.818 86.7024 24.8393 85.5931C24.8607 84.4624 24.882 83.3318 24.9033 82.2011C24.9247 81.0704 24.9353 80.0358 24.9353 79.0971V75.8331C23.6553 77.6251 22.29 79.1931 20.8393 80.5371C20.5193 80.5371 20.3593 80.3878 20.3593 80.0891C21.042 79.1291 21.682 78.0518 22.2793 76.8571C22.898 75.6624 23.4527 74.4358 23.9433 73.1771C24.434 71.8971 24.8607 70.6704 25.2233 69.4971C25.586 68.3024 25.874 67.2358 26.0873 66.2971C26.3007 65.3371 26.418 64.5798 26.4393 64.0251C26.4393 63.8758 26.4713 63.7904 26.5353 63.7691C26.5993 63.7051 26.6953 63.6944 26.8233 63.7371C27.186 63.8224 27.634 63.9504 28.1673 64.1211C28.722 64.2918 29.266 64.4731 29.7993 64.6651C30.354 64.8571 30.802 65.0171 31.1433 65.1451C31.3567 65.2518 31.4207 65.4331 31.3353 65.6891C31.2713 65.9238 31.1327 66.0411 30.9193 66.0411C30.642 66.0198 30.4287 66.0518 30.2793 66.1371C30.13 66.2011 30.002 66.3718 29.8953 66.6491C29.618 67.3744 29.3193 68.0998 28.9993 68.8251C28.6793 69.5291 28.338 70.2224 27.9753 70.9051V86.7131C28.8713 85.6251 29.7673 84.3131 30.6633 82.7771C31.5807 81.2411 32.434 79.5558 33.2233 77.7211C34.034 75.8864 34.7167 73.9878 35.2713 72.0251H32.5513C32.5513 72.0251 32.2313 72.0358 31.5913 72.0571C30.9513 72.0571 30.258 72.0998 29.5113 72.1851L29.1593 70.7771C30.0767 70.9264 30.866 71.0118 31.5273 71.0331C32.21 71.0544 32.5513 71.0651 32.5513 71.0651H36.6793V66.4251C36.6793 65.4011 36.594 64.7398 36.4233 64.4411C36.3593 64.2704 36.3593 64.1424 36.4233 64.0571C36.466 63.9504 36.5727 63.8971 36.7433 63.8971C37.0207 63.8971 37.4047 63.9398 37.8953 64.0251C38.386 64.0891 38.8767 64.1638 39.3673 64.2491C39.8793 64.3344 40.2633 64.4091 40.5193 64.4731C40.7967 64.5371 40.914 64.7078 40.8713 64.9851C40.85 65.1344 40.7967 65.2411 40.7113 65.3051C40.626 65.3691 40.53 65.4118 40.4233 65.4331C39.954 65.4544 39.7193 65.6784 39.7193 66.1051V71.0651H44.2313C44.53 71.0651 44.7433 70.9691 44.8713 70.7771C44.9567 70.6704 45.0847 70.4998 45.2553 70.2651C45.426 70.0304 45.5967 69.7958 45.7673 69.5611C45.9593 69.3264 46.0873 69.1558 46.1513 69.0491C46.3433 68.7931 46.5887 68.7611 46.8873 68.9531C47.122 69.0811 47.4207 69.2944 47.7833 69.5931C48.1673 69.8918 48.53 70.1904 48.8713 70.4891C49.2127 70.7878 49.4473 71.0224 49.5753 71.1931C49.746 71.3638 49.7993 71.5451 49.7353 71.7371C49.6713 71.9291 49.554 72.0251 49.3833 72.0251H40.1353C40.5407 73.2411 41.1273 74.4358 41.8953 75.6091C42.6847 76.7611 43.57 77.8384 44.5513 78.8411C45.554 79.8438 46.5887 80.7398 47.6553 81.5291C48.7433 82.2971 49.778 82.9264 50.7593 83.4171C49.97 83.7584 49.2447 84.2384 48.5833 84.8571C47.9433 85.4758 47.4953 86.0518 47.2393 86.5851C46.0233 85.5184 44.9033 84.2491 43.8793 82.7771C42.8767 81.3051 42.0127 79.7264 41.2873 78.0411C40.5833 76.3558 40.0607 74.6491 39.7193 72.9211V85.5291H40.7113C40.9887 85.5291 41.1807 85.4438 41.2873 85.2731C41.394 85.1024 41.5647 84.8464 41.7993 84.5051C42.0553 84.1424 42.226 83.8864 42.3113 83.7371C42.5033 83.5024 42.7273 83.4811 42.9833 83.6731C43.1967 83.8011 43.4527 84.0038 43.7513 84.2811C44.05 84.5371 44.338 84.8038 44.6153 85.0811C44.914 85.3371 45.1273 85.5504 45.2553 85.7211C45.4047 85.8918 45.4473 86.0624 45.3833 86.2331C45.3407 86.4038 45.234 86.4891 45.0633 86.4891H39.7193C39.7407 87.2144 39.762 87.9718 39.7833 88.7611C39.826 89.5291 39.858 90.1904 39.8793 90.7451C39.9007 91.2998 39.9113 91.6304 39.9113 91.7371C39.9113 92.0358 39.634 92.2918 39.0793 92.5051C38.5247 92.7184 37.9273 92.8251 37.2873 92.8251Z" fill="#D42323"/>
<path d="M93.4928 133.505C93.4928 152.28 78.2726 167.5 59.4975 167.5C40.7224 167.5 25.5022 152.28 25.5022 133.505C25.5022 114.729 40.7224 99.5092 59.4975 99.5092C78.2726 99.5092 93.4928 114.729 93.4928 133.505Z" fill="white" stroke="#832CC7" stroke-width="3"/>
<path d="M58.0255 148.638C57.8335 147.657 57.6095 146.91 57.3535 146.398C57.1189 145.886 56.7455 145.513 56.2335 145.278C55.7429 145.044 55.0069 144.862 54.0255 144.734C53.8335 144.5 53.8549 144.286 54.0895 144.094C54.3029 144.094 54.6655 144.105 55.1775 144.126C55.7109 144.126 56.2655 144.126 56.8415 144.126C57.4175 144.126 57.8762 144.126 58.2175 144.126C58.9215 144.126 59.2522 143.87 59.2095 143.358C59.2095 143.188 59.1989 142.633 59.1775 141.694C59.1562 140.756 59.1242 139.604 59.0815 138.238C56.8842 139.668 54.6122 140.884 52.2655 141.886C49.9189 142.868 47.6255 143.657 45.3855 144.254C45.0869 144.105 45.0229 143.902 45.1935 143.646C46.5375 143.092 47.9989 142.398 49.5775 141.566C51.1562 140.734 52.7455 139.785 54.3455 138.718C55.9669 137.63 57.5029 136.457 58.9535 135.198L58.6975 127.326C57.7162 127.326 56.7562 127.326 55.8175 127.326C54.9002 127.326 54.0362 127.326 53.2255 127.326C51.9242 127.326 50.8362 127.326 49.9615 127.326C49.0869 127.326 48.5749 127.326 48.4255 127.326C48.4255 127.326 48.1055 127.337 47.4655 127.358C46.8255 127.358 46.1322 127.401 45.3855 127.486L45.0335 126.078C45.9509 126.206 46.7402 126.281 47.4015 126.302C48.0842 126.324 48.4255 126.334 48.4255 126.334H58.6655L58.5375 122.814C58.5162 122.132 58.4629 121.598 58.3775 121.214C58.3135 120.83 58.2389 120.564 58.1535 120.414C58.0469 120.286 58.0362 120.158 58.1215 120.03C58.1855 119.924 58.2922 119.87 58.4415 119.87C58.7402 119.87 59.1669 119.902 59.7215 119.966C60.2762 120.03 60.8309 120.105 61.3855 120.19C61.9615 120.254 62.3882 120.318 62.6655 120.382C62.9429 120.446 63.0602 120.617 63.0175 120.894C63.0175 121.172 62.8682 121.332 62.5695 121.374C62.3349 121.396 62.1429 121.46 61.9935 121.566C61.8655 121.673 61.8015 121.844 61.8015 122.078C61.8015 122.249 61.8122 122.75 61.8335 123.582C61.8762 124.393 61.9082 125.31 61.9295 126.334H68.0415C68.3402 126.334 68.5642 126.249 68.7135 126.078C68.7989 125.95 68.9375 125.769 69.1295 125.534C69.3215 125.3 69.5029 125.065 69.6735 124.83C69.8655 124.596 70.0042 124.425 70.0895 124.318C70.2815 124.062 70.5269 124.02 70.8255 124.19C71.0815 124.297 71.4015 124.51 71.7855 124.83C72.1909 125.129 72.5749 125.438 72.9375 125.758C73.3215 126.057 73.5989 126.302 73.7695 126.494C73.9189 126.665 73.9615 126.846 73.8975 127.038C73.8549 127.23 73.7482 127.326 73.5775 127.326H61.9615L62.0895 132.03C62.6442 131.39 63.1669 130.718 63.6575 130.014C64.1695 129.289 64.4682 128.734 64.5535 128.35C64.5962 128.18 64.6495 128.073 64.7135 128.03C64.7989 127.966 64.9055 127.966 65.0335 128.03C65.3109 128.158 65.6842 128.372 66.1535 128.67C66.6229 128.969 67.0815 129.278 67.5295 129.598C67.9989 129.897 68.3509 130.142 68.5855 130.334C68.7775 130.462 68.7989 130.644 68.6495 130.878C68.5429 131.113 68.3829 131.177 68.1695 131.07C67.8282 130.964 67.5829 130.932 67.4335 130.974C67.2842 131.017 67.1135 131.166 66.9215 131.422C66.2175 132.254 65.4709 133.054 64.6815 133.822C63.9135 134.569 63.1029 135.284 62.2495 135.966C62.3135 137.716 62.3882 139.294 62.4735 140.702C62.5802 142.11 62.6442 143.198 62.6655 143.966C62.7082 144.67 62.5909 145.332 62.3135 145.95C62.0575 146.569 61.5882 147.102 60.9055 147.55C60.2229 148.02 59.2629 148.382 58.0255 148.638Z" fill="#832CC7"/>
<path d="M120.659 35.4954C120.659 54.2705 105.439 69.4908 86.6638 69.4908C67.8887 69.4908 52.6685 54.2705 52.6685 35.4954C52.6685 16.7203 67.8887 1.5 86.6638 1.5C105.439 1.5 120.659 16.7203 120.659 35.4954Z" fill="white" stroke="#E88F3D" stroke-width="3"/>
<path d="M74.8878 50.9492C74.6531 51.0345 74.4824 50.9812 74.3758 50.7892C74.2264 50.5332 74.0131 50.1278 73.7358 49.5732C73.4798 49.0185 73.2238 48.4745 72.9678 47.9412C72.7331 47.3865 72.5518 46.9812 72.4238 46.7252C72.3598 46.5545 72.3598 46.4372 72.4238 46.3732C72.4878 46.2878 72.6158 46.2452 72.8078 46.2452C72.9571 46.2452 73.1278 46.2452 73.3198 46.2452C73.5331 46.2452 73.7464 46.2345 73.9598 46.2132C74.5144 46.1918 75.1651 46.1598 75.9118 46.1172C76.6798 46.0745 77.4904 46.0212 78.3438 45.9572V34.5332C78.3438 34.0212 78.3331 33.5625 78.3118 33.1572C78.2904 32.7305 78.2584 32.3572 78.2158 32.0372C77.1704 32.6558 76.1038 33.2105 75.0158 33.7012C73.9491 34.1705 72.8718 34.5865 71.7838 34.9492C71.5278 34.8212 71.4531 34.6185 71.5598 34.3412C73.2024 33.5092 74.7064 32.5278 76.0718 31.3972C77.4584 30.2452 78.6744 29.0612 79.7198 27.8452C80.7864 26.6292 81.6398 25.4772 82.2798 24.3892C82.9411 23.2798 83.3464 22.3518 83.4958 21.6052C83.5171 21.5412 83.5278 21.4878 83.5278 21.4452C83.5491 21.3812 83.5704 21.3278 83.5918 21.2852C83.6558 21.1785 83.7944 21.1465 84.0078 21.1892C84.2638 21.2318 84.6798 21.3385 85.2558 21.5092C85.8318 21.6585 86.4184 21.8292 87.0158 22.0212C87.6131 22.1918 88.0611 22.3305 88.3598 22.4372C88.4664 22.4798 88.5411 22.5652 88.5838 22.6932C88.6264 22.7998 88.6264 22.9065 88.5838 23.0132C88.4984 23.2265 88.3384 23.3332 88.1038 23.3332H88.0398C88.7651 24.3145 89.6611 25.1678 90.7278 25.8932C91.8158 26.6185 92.9891 27.2158 94.2478 27.6852C95.5278 28.1545 96.8291 28.5278 98.1518 28.8052C99.4744 29.0612 100.733 29.2212 101.928 29.2852C101.48 29.5412 101.053 29.9038 100.648 30.3732C100.242 30.8425 99.9011 31.3332 99.6238 31.8452C99.3464 32.3358 99.1438 32.7732 99.0158 33.1572C98.4824 32.9865 97.9064 32.7838 97.2878 32.5492C96.6904 32.2932 96.0824 31.9945 95.4638 31.6532C95.5491 31.7812 95.5704 31.9198 95.5278 32.0692C95.4851 32.2185 95.3891 32.3358 95.2398 32.4212C95.1118 32.4638 94.9198 32.5492 94.6638 32.6772C94.5571 32.7412 94.4718 32.8372 94.4078 32.9652C94.3651 33.0718 94.3438 33.2638 94.3438 33.5412C94.3438 34.0532 94.3544 34.6718 94.3758 35.3972C94.3971 36.1012 94.4184 36.8158 94.4398 37.5412C94.4824 38.2452 94.5144 38.8638 94.5358 39.3972C94.8558 39.5465 95.2504 39.7385 95.7198 39.9732C96.1891 40.2078 96.6478 40.4425 97.0958 40.6772C97.5651 40.8905 97.9384 41.0825 98.2158 41.2532C98.4078 41.3598 98.4718 41.5198 98.4078 41.7332C98.3438 41.9892 98.1944 42.0958 97.9598 42.0532C97.6611 42.0105 97.4158 42.0212 97.2238 42.0852C97.0531 42.1278 96.8398 42.2345 96.5838 42.4052C95.8584 42.8745 95.0478 43.3438 94.1518 43.8132C93.2771 44.2825 92.4344 44.6985 91.6238 45.0612C93.1811 45.7438 94.8558 46.1705 96.6478 46.3412C98.4398 46.5118 100.125 46.5758 101.704 46.5332C100.978 47.0025 100.328 47.6318 99.7518 48.4212C99.1971 49.2318 98.8451 49.9572 98.6958 50.5972C96.8398 50.2772 95.0264 49.7438 93.2558 48.9972C91.4851 48.2505 89.9704 47.1838 88.7118 45.7972C88.1144 45.9892 87.3571 46.2238 86.4398 46.5012C85.5438 46.7785 84.5838 47.0772 83.5598 47.3972C82.5358 47.6958 81.5224 47.9945 80.5198 48.2932C79.5171 48.5918 78.6104 48.8585 77.7998 49.0932C76.9891 49.3492 76.3491 49.5518 75.8798 49.7012C75.6024 49.7865 75.3998 49.8718 75.2718 49.9572C75.1651 50.0425 75.1224 50.2132 75.1438 50.4692C75.2078 50.7038 75.1224 50.8638 74.8878 50.9492ZM81.9278 31.3972H84.8398V29.5732C84.8398 29.1892 84.8078 28.8478 84.7438 28.5492C84.7011 28.2505 84.6584 28.0478 84.6158 27.9412C84.5518 27.8132 84.5518 27.6958 84.6158 27.5892C84.6584 27.4398 84.7758 27.3865 84.9678 27.4292C85.2878 27.4505 85.6931 27.5038 86.1838 27.5892C86.6744 27.6745 87.1651 27.7705 87.6558 27.8772C88.1678 27.9625 88.5838 28.0585 88.9038 28.1652C89.1384 28.2292 89.2344 28.3892 89.1918 28.6452C89.1918 28.8798 89.0638 29.0292 88.8078 29.0932C88.5518 29.1572 88.3704 29.2532 88.2638 29.3812C88.1784 29.4878 88.1358 29.6798 88.1358 29.9572V31.3972H90.5038C90.8024 31.3972 91.0051 31.3118 91.1118 31.1412C91.2184 31.0345 91.3358 30.8852 91.4638 30.6932C91.6131 30.4798 91.7411 30.2985 91.8478 30.1492C91.9971 29.9358 92.1998 29.8825 92.4558 29.9892C92.5411 30.0105 92.6371 30.0532 92.7438 30.1172C92.8718 30.1598 93.0104 30.2132 93.1598 30.2772C91.9651 29.4452 90.8344 28.4638 89.7678 27.3332C88.7224 26.2025 87.8904 24.9225 87.2718 23.4932C87.1651 23.5785 87.0371 23.7278 86.8878 23.9412C85.9704 25.3065 84.9571 26.5438 83.8478 27.6532C82.7384 28.7412 81.5864 29.7225 80.3918 30.5972C80.6691 30.7465 80.9358 30.8852 81.1918 31.0132C81.4691 31.1412 81.7144 31.2692 81.9278 31.3972ZM81.5438 39.3972H91.1438V36.2612H81.5438V39.3972ZM81.5438 35.3012H91.1438V32.3572H81.5438V35.3012ZM81.5438 45.7012C82.8664 45.5945 84.1251 45.4985 85.3198 45.4132C86.5358 45.3065 87.4851 45.2212 88.1678 45.1572C87.6558 44.4958 87.2078 43.7705 86.8238 42.9812C86.4398 42.1918 86.1411 41.3172 85.9278 40.3572H81.5438V45.7012ZM90.6958 44.6132C91.0584 44.2292 91.4211 43.7812 91.7838 43.2692C92.1678 42.7358 92.5091 42.2238 92.8078 41.7332C92.6798 41.7545 92.5518 41.7652 92.4238 41.7652C92.2958 41.7652 92.1571 41.7652 92.0078 41.7652C91.4318 41.7652 91.1438 41.5305 91.1438 41.0612V40.3572H86.7918C87.2184 41.3385 87.7624 42.1705 88.4238 42.8532C89.0851 43.5358 89.8424 44.1225 90.6958 44.6132Z" fill="#E88F3D"/>
<path d="M171.5 71.4988C171.5 90.2739 156.28 105.494 137.505 105.494C118.73 105.494 103.509 90.2739 103.509 71.4988C103.509 52.7236 118.73 37.5034 137.505 37.5034C156.28 37.5034 171.5 52.7236 171.5 71.4988Z" fill="white" stroke="#2659BC" stroke-width="3"/>
<path d="M139.777 86.3765C139.265 86.3765 139.009 86.1312 139.009 85.6405C139.009 85.5125 139.019 84.9472 139.041 83.9445C139.062 82.9205 139.083 81.6299 139.105 80.0725C139.147 78.4939 139.179 76.7659 139.201 74.8885C139.222 72.9899 139.233 71.0912 139.233 69.1925C139.233 67.3792 139.211 65.8965 139.169 64.7445C139.147 63.5925 139.062 62.7712 138.913 62.2805C138.87 62.1739 138.881 62.0672 138.945 61.9605C139.051 61.8965 139.169 61.8859 139.297 61.9285C139.574 62.0139 139.926 62.1419 140.353 62.3125C140.801 62.4832 141.249 62.6645 141.697 62.8565C142.166 63.0485 142.55 63.2192 142.849 63.3685H146.433C146.603 63.3685 146.731 63.3045 146.817 63.1765C146.902 63.0699 147.019 62.8992 147.169 62.6645C147.318 62.4299 147.435 62.2485 147.521 62.1205C147.649 61.9285 147.841 61.8752 148.097 61.9605C148.331 62.0459 148.651 62.1952 149.057 62.4085C149.462 62.6005 149.867 62.8139 150.273 63.0485C150.678 63.2619 150.998 63.4432 151.233 63.5925C151.403 63.6779 151.478 63.8272 151.457 64.0405C151.435 64.2325 151.339 64.3712 151.169 64.4565C151.083 64.4992 150.987 64.5525 150.881 64.6165C150.795 64.6592 150.71 64.7019 150.625 64.7445C150.305 64.9579 150.145 65.2992 150.145 65.7685V69.4485C150.145 71.2405 150.155 72.9792 150.177 74.6645C150.219 76.3285 150.251 77.8432 150.273 79.2085C150.315 80.5525 150.347 81.6512 150.369 82.5045C150.411 83.3365 150.433 83.8165 150.433 83.9445C150.433 84.1579 150.283 84.3392 149.985 84.4885C149.686 84.6592 149.323 84.7872 148.897 84.8725C148.47 84.9579 148.054 85.0005 147.649 85.0005C147.137 85.0005 146.881 84.7659 146.881 84.2965V83.2405H142.529V85.3525C142.529 85.5445 142.379 85.7152 142.081 85.8645C141.803 86.0352 141.451 86.1632 141.025 86.2485C140.598 86.3339 140.182 86.3765 139.777 86.3765ZM123.201 86.6965C122.881 86.5899 122.785 86.3979 122.913 86.1205C124.406 85.2672 125.622 84.2432 126.561 83.0485C127.499 81.8539 128.193 80.3925 128.641 78.6645C129.089 76.9365 129.334 74.8565 129.377 72.4245H126.465C126.465 72.4245 126.305 72.4245 125.985 72.4245C125.686 72.4245 125.302 72.4459 124.833 72.4885C124.385 72.5099 123.915 72.5525 123.425 72.6165L123.041 71.2085C123.979 71.3365 124.779 71.4112 125.441 71.4325C126.102 71.4539 126.433 71.4645 126.433 71.4645H129.377V64.8725H128.385C127.659 66.0459 126.891 67.1339 126.081 68.1365C125.27 69.1392 124.449 70.0459 123.617 70.8565C123.275 70.8992 123.105 70.7605 123.105 70.4405C123.702 69.5659 124.246 68.5525 124.737 67.4005C125.227 66.2272 125.643 65.0432 125.985 63.8485C126.347 62.6325 126.614 61.5125 126.785 60.4885C126.977 59.4432 127.073 58.6219 127.073 58.0245C127.073 57.7472 127.19 57.6299 127.425 57.6725C127.681 57.6939 128.097 57.7792 128.673 57.9285C129.27 58.0779 129.857 58.2379 130.433 58.4085C131.03 58.5579 131.457 58.6752 131.713 58.7605C131.926 58.8245 132.011 58.9739 131.969 59.2085C131.926 59.4432 131.809 59.5605 131.617 59.5605C131.339 59.5819 131.137 59.6459 131.009 59.7525C130.902 59.8592 130.795 60.0405 130.689 60.2965C130.433 60.9152 130.155 61.5339 129.857 62.1525C129.579 62.7499 129.281 63.3259 128.961 63.8805H133.121C133.419 63.8805 133.622 63.7952 133.729 63.6245C133.857 63.4539 134.038 63.1979 134.273 62.8565C134.507 62.4939 134.678 62.2379 134.785 62.0885C134.977 61.8112 135.222 61.7792 135.521 61.9925C135.883 62.2059 136.299 62.5365 136.769 62.9845C137.238 63.4112 137.59 63.7632 137.825 64.0405C137.995 64.2112 138.038 64.3925 137.953 64.5845C137.889 64.7765 137.771 64.8725 137.601 64.8725H132.801V71.4645H133.601C133.857 71.4645 134.059 71.3792 134.209 71.2085C134.315 71.0165 134.497 70.7285 134.753 70.3445C135.03 69.9392 135.222 69.6619 135.329 69.5125C135.521 69.2352 135.766 69.2032 136.065 69.4165C136.299 69.5659 136.577 69.7899 136.897 70.0885C137.238 70.3659 137.558 70.6432 137.857 70.9205C138.155 71.1979 138.379 71.4325 138.529 71.6245C138.699 71.7952 138.753 71.9765 138.689 72.1685C138.625 72.3392 138.497 72.4245 138.305 72.4245H132.801C132.737 74.4512 132.47 76.2325 132.001 77.7685C133.003 78.0032 133.931 78.3552 134.785 78.8245C135.638 79.2725 136.342 79.8272 136.897 80.4885C137.451 81.1499 137.771 81.8965 137.857 82.7285C137.942 83.3472 137.846 83.8699 137.569 84.2965C137.313 84.7232 136.971 85.0112 136.545 85.1605C136.139 85.3099 135.745 85.3099 135.361 85.1605C134.998 85.0325 134.763 84.7125 134.657 84.2005C134.379 83.0272 134.006 81.9712 133.537 81.0325C133.067 80.0939 132.459 79.2725 131.713 78.5685C130.987 80.5525 129.899 82.1952 128.449 83.4965C127.019 84.7979 125.27 85.8645 123.201 86.6965ZM142.529 82.2805H146.881V64.3605H142.529V82.2805Z" fill="#2659BC"/>
<path d="M159.499 133.505C159.499 152.28 144.279 167.5 125.504 167.5C106.729 167.5 91.5083 152.28 91.5083 133.505C91.5083 114.729 106.729 99.5092 125.504 99.5092C144.279 99.5092 159.499 114.729 159.499 133.505Z" fill="white" stroke="#36A51A" stroke-width="3"/>
<path d="M121.12 137.342C120.65 137.342 120.416 137.129 120.416 136.702C120.416 136.617 120.426 136.286 120.448 135.71C120.49 135.113 120.522 134.366 120.544 133.47C120.586 132.553 120.608 131.582 120.608 130.558C120.608 129.598 120.586 128.862 120.544 128.35C120.522 127.817 120.458 127.433 120.352 127.198C120.33 127.113 120.352 127.017 120.416 126.91C120.48 126.846 120.565 126.836 120.672 126.878C120.885 126.942 121.194 127.06 121.6 127.23C122.026 127.38 122.453 127.54 122.88 127.71C123.328 127.881 123.669 128.03 123.904 128.158H127.424V124.67C126.933 124.67 126.464 124.67 126.016 124.67C125.568 124.67 125.152 124.67 124.768 124.67C124.192 124.67 123.701 124.67 123.296 124.67C122.912 124.67 122.677 124.67 122.592 124.67C122.592 124.67 122.272 124.681 121.632 124.702C120.992 124.702 120.298 124.745 119.552 124.83L119.2 123.454C120.117 123.582 120.906 123.657 121.568 123.678C122.25 123.7 122.592 123.71 122.592 123.71H127.424V122.27C127.424 121.737 127.392 121.31 127.328 120.99C127.285 120.67 127.232 120.436 127.168 120.286C127.082 120.116 127.072 119.988 127.136 119.902C127.221 119.796 127.328 119.753 127.456 119.774C127.733 119.774 128.128 119.806 128.64 119.87C129.173 119.934 129.696 120.009 130.208 120.094C130.741 120.18 131.136 120.254 131.392 120.318C131.648 120.382 131.754 120.553 131.712 120.83C131.712 121.086 131.562 121.236 131.264 121.278C130.794 121.321 130.56 121.545 130.56 121.95V123.71H134.656C134.954 123.71 135.168 123.614 135.296 123.422C135.381 123.316 135.498 123.156 135.648 122.942C135.818 122.708 135.989 122.473 136.16 122.238C136.33 122.004 136.448 121.844 136.512 121.758C136.704 121.502 136.949 121.46 137.248 121.63C137.482 121.758 137.77 121.972 138.112 122.27C138.474 122.548 138.816 122.836 139.136 123.134C139.477 123.433 139.722 123.668 139.872 123.838C140.042 124.03 140.096 124.222 140.032 124.414C139.968 124.585 139.85 124.67 139.68 124.67H130.56V128.158H134.176C134.389 128.158 134.538 128.084 134.624 127.934C134.709 127.828 134.816 127.678 134.944 127.486C135.093 127.273 135.21 127.113 135.296 127.006C135.424 126.793 135.626 126.74 135.904 126.846C136.245 126.996 136.704 127.22 137.28 127.518C137.856 127.817 138.304 128.062 138.624 128.254C138.816 128.382 138.901 128.553 138.88 128.766C138.88 128.98 138.762 129.14 138.528 129.246C138.442 129.268 138.357 129.3 138.272 129.342C138.208 129.385 138.144 129.428 138.08 129.47C137.845 129.62 137.728 129.918 137.728 130.366C137.728 130.878 137.738 131.454 137.76 132.094C137.781 132.713 137.792 133.321 137.792 133.918C137.813 134.494 137.834 134.985 137.856 135.39C137.877 135.796 137.888 136.03 137.888 136.094C137.888 136.372 137.621 136.606 137.088 136.798C136.554 136.969 136 137.054 135.424 137.054C134.933 137.054 134.688 136.841 134.688 136.414V135.838H123.552V136.414C123.552 136.692 123.285 136.916 122.752 137.086C122.24 137.257 121.696 137.342 121.12 137.342ZM114.656 148.734C114.144 148.734 113.888 148.51 113.888 148.062C113.888 147.977 113.898 147.668 113.92 147.134C113.941 146.601 113.962 145.908 113.984 145.054C114.026 144.201 114.058 143.273 114.08 142.27C114.122 141.246 114.154 140.222 114.176 139.198C114.197 138.153 114.208 137.182 114.208 136.286V135.07C113.098 136.329 111.968 137.428 110.816 138.366C110.474 138.366 110.325 138.217 110.368 137.918C111.029 137.108 111.669 136.19 112.288 135.166C112.906 134.142 113.472 133.097 113.984 132.03C114.496 130.964 114.922 129.95 115.264 128.99C115.605 128.03 115.829 127.209 115.936 126.526C115.936 126.441 115.978 126.356 116.064 126.27C116.149 126.249 116.266 126.249 116.416 126.27C116.544 126.313 116.768 126.409 117.088 126.558C117.429 126.708 117.792 126.868 118.176 127.038C118.581 127.209 118.944 127.369 119.264 127.518C119.605 127.646 119.829 127.742 119.936 127.806C120.042 127.849 120.106 127.924 120.128 128.03C120.149 128.137 120.138 128.244 120.096 128.35C120.01 128.542 119.882 128.628 119.712 128.606C119.498 128.564 119.317 128.564 119.168 128.606C119.04 128.649 118.89 128.788 118.72 129.022C118.208 129.854 117.674 130.665 117.12 131.454V136.286C117.12 136.457 117.12 136.852 117.12 137.47C117.12 138.089 117.12 138.836 117.12 139.71C117.12 140.564 117.12 141.449 117.12 142.366C117.141 143.284 117.152 144.148 117.152 144.958C117.152 145.748 117.152 146.398 117.152 146.91C117.152 147.422 117.152 147.689 117.152 147.71C117.152 147.988 116.885 148.222 116.352 148.414C115.818 148.628 115.253 148.734 114.656 148.734ZM125.76 148.254C124.544 148.169 123.936 147.657 123.936 146.718V140.574C123.936 139.508 123.85 138.825 123.68 138.526C123.637 138.377 123.637 138.27 123.68 138.206C123.765 138.121 123.861 138.089 123.968 138.11C124.224 138.11 124.597 138.142 125.088 138.206C125.578 138.27 126.069 138.345 126.56 138.43C127.05 138.494 127.413 138.558 127.648 138.622C127.882 138.686 127.978 138.836 127.936 139.07C127.914 139.284 127.786 139.412 127.552 139.454C127.338 139.476 127.168 139.529 127.04 139.614C126.912 139.678 126.848 139.817 126.848 140.03V144.67C126.848 145.097 127.136 145.321 127.712 145.342C128.053 145.364 128.48 145.374 128.992 145.374C129.504 145.353 129.994 145.332 130.464 145.31C130.954 145.268 131.317 145.225 131.552 145.182C131.914 145.097 132.149 144.99 132.256 144.862C132.384 144.734 132.501 144.532 132.608 144.254C132.714 143.977 132.832 143.604 132.96 143.134C133.088 142.644 133.205 142.174 133.312 141.726C133.418 141.257 133.493 140.948 133.536 140.798C133.792 140.606 134.016 140.638 134.208 140.894C134.208 141.044 134.197 141.342 134.176 141.79C134.154 142.238 134.133 142.686 134.112 143.134C134.112 143.582 134.101 143.902 134.08 144.094C134.08 144.436 134.261 144.681 134.624 144.83C134.965 144.958 135.21 145.161 135.36 145.438C135.509 145.716 135.584 146.014 135.584 146.334C135.584 147.145 134.954 147.678 133.696 147.934C133.226 148.041 132.629 148.116 131.904 148.158C131.178 148.222 130.41 148.265 129.6 148.286C128.81 148.308 128.074 148.308 127.392 148.286C126.709 148.286 126.165 148.276 125.76 148.254ZM111.104 128.83C110.954 128.809 110.848 128.745 110.784 128.638C110.72 128.532 110.698 128.414 110.72 128.286C111.296 127.689 111.861 127.006 112.416 126.238C112.97 125.47 113.461 124.702 113.888 123.934C114.336 123.145 114.698 122.42 114.976 121.758C115.274 121.076 115.456 120.532 115.52 120.126C115.52 119.998 115.562 119.913 115.648 119.87C115.712 119.828 115.829 119.828 116 119.87C116.298 119.977 116.693 120.148 117.184 120.382C117.696 120.596 118.197 120.82 118.688 121.054C119.178 121.268 119.541 121.449 119.776 121.598C119.968 121.705 120.021 121.865 119.936 122.078C119.85 122.334 119.712 122.441 119.52 122.398C119.285 122.356 119.082 122.366 118.912 122.43C118.762 122.473 118.602 122.59 118.432 122.782C117.322 123.934 116.106 125.065 114.784 126.174C113.482 127.262 112.256 128.148 111.104 128.83ZM138.784 146.334C138.421 146.441 138.069 146.42 137.728 146.27C137.408 146.121 137.194 145.79 137.088 145.278C136.874 144.233 136.48 143.156 135.904 142.046C135.349 140.937 134.677 140.052 133.888 139.39C133.845 139.07 133.973 138.889 134.272 138.846C135.274 139.188 136.202 139.625 137.056 140.158C137.909 140.67 138.602 141.257 139.136 141.918C139.69 142.58 140 143.305 140.064 144.094C140.128 144.692 140.021 145.193 139.744 145.598C139.466 145.982 139.146 146.228 138.784 146.334ZM119.36 147.07C118.741 147.092 118.304 146.889 118.048 146.462C117.792 146.057 117.728 145.598 117.856 145.086C117.984 144.574 118.293 144.19 118.784 143.934C119.658 143.444 120.298 142.846 120.704 142.142C121.13 141.417 121.333 140.468 121.312 139.294C121.525 139.038 121.749 139.006 121.984 139.198C122.218 140.073 122.357 140.969 122.4 141.886C122.464 142.782 122.41 143.625 122.24 144.414C122.09 145.182 121.781 145.812 121.312 146.302C120.842 146.772 120.192 147.028 119.36 147.07ZM130.944 141.79C130.581 141.876 130.272 141.854 130.016 141.726C129.76 141.598 129.578 141.321 129.472 140.894C129.258 139.998 128.949 139.22 128.544 138.558C128.138 137.897 127.594 137.396 126.912 137.054C126.762 136.756 126.837 136.553 127.136 136.446C127.904 136.51 128.65 136.67 129.376 136.926C130.122 137.161 130.752 137.502 131.264 137.95C131.797 138.377 132.128 138.91 132.256 139.55C132.362 140.148 132.277 140.649 132 141.054C131.722 141.438 131.37 141.684 130.944 141.79ZM132.768 134.846H134.688V129.118H132.768V134.846ZM123.552 134.846H125.44V129.118H123.552V134.846ZM128.16 134.846H130.048V129.118H128.16V134.846Z" fill="#36A51A"/>
</svg>
